<svg id="Layer_1" data-name="Layer 1" xmlns="http://www.w3.org/2000/svg" viewBox="0 0 299.32 139.83"><defs><style>.cls-1{font-size:108.49px;stroke:aqua;font-family:GoudyStout, Goudy Stout;}.cls-1,.cls-4{fill:#fff;}.cls-1,.cls-4,.cls-5{stroke-miterlimit:10;}.cls-2{stroke-width:2px;}.cls-3{fill:lime;stroke:red;font-size:108.49px;font-family:BradleyHandITC, Bradley Hand ITC;}.cls-4,.cls-5{stroke:#000;}.cls-5,.cls-6{fill:red;}</style></defs><text class="cls-1" transform="translate(1 95.66)"><tspan class="cls-2">B</tspan><tspan class="cls-3" x="126.24" y="0">oyz</tspan></text><path class="cls-4" d="M93,69.72l6.34.47c1.92.14,3.33,2.3,3.14,4.82h0c-.18,2.52-1.89,4.44-3.81,4.3l-6.35-.47C90.36,78.7,89,76.54,89.14,74h0C89.33,71.5,91,69.58,93,69.72Z" transform="translate(-52.31 -22.17)"/><path class="cls-5" d="M113.41,70.05l6.34.47c1.93.14,3.33,2.3,3.15,4.82h0c-.19,2.51-1.9,4.44-3.82,4.3l-6.35-.47c-1.92-.14-3.33-2.3-3.14-4.82h0C109.78,71.83,111.48,69.91,113.41,70.05Z" transform="translate(-52.31 -22.17)"/><polyline class="cls-6" points="73.06 41.3 74.82 35.97 79.51 18.79 72.29 33.76 74.42 15.41 69.01 31 70.95 14.49 64.99 29.93 63.96 20.2 61.41 28.98 60.4 32.49 61.04 19.42 55.7 31.24 54.71 18.77 50.41 31.73 49.81 19.66 46.01 32.36 45.84 20.65 41.32 31.81 41.48 21.79 37.69 31.18 34.27 21.77 35.94 39.44"/></svg>